# xmcd
#
# Track frame offsets: 
#        150
#        19155
#        37597
#        51715
#        67469
#        82173
#        98188
#        112185
#        125618
#        140236
#        155824
#
# Disc length: 2328 seconds
#
# Revision: 0
# Processed by: cddbd v1.5.2PL0 Copyright (c) Steve Scherf et al.
# Submitted via: ExactAudioCopyFreeDBPlugin 1.0
#
DISCID=ae09160b
DTITLE=Various Artist - Jasha Jasha
DYEAR=2014
DGENRE=hip-hop
TTITLE0=Jasha ( Tingulli 3nt)
TTITLE1=Remix ( Flori Mumajrsi)
TTITLE2=Ska Rendsi (Dafina Dauti FB.Baboo darabuka)
TTITLE3=Le ta din (Stellina)
TTITLE4=Armani ( Mercy FT. Nadrad)
TTITLE5=Duro Shpirt (Elvana Gjata)
TTITLE6=Fresh ( Victory)
TTITLE7=Si je (Kaos)
TTITLE8=Come to me (Nitti Aka Big Boy)
TTITLE9=Jambo (Stresi)
TTITLE10=Baby (TDS)
EXTD=
EXTT0=
EXTT1=
EXTT2=
EXTT3=
EXTT4=
EXTT5=
EXTT6=
EXTT7=
EXTT8=
EXTT9=
EXTT10=
PLAYORDER=
